<mxfile host="Electron" modified="2024-02-29T08:44:29.807Z" agent="Mozilla/5.0 (X11; Linux x86_64) AppleWebKit/537.36 (KHTML, like Gecko) draw.io/21.6.5 Chrome/114.0.5735.243 Electron/25.3.1 Safari/537.36" etag="6CizPJDj3Mro2KHQq2Sk" version="21.6.5" type="device" pages="2">
  <diagram name="ActivitiEngine工作原理" id="4JMoBGyp9v3T4AjweXGR">
    <mxGraphModel dx="2768" dy="756" grid="1" gridSize="10" guides="1" tooltips="1" connect="1" arrows="1" fold="1" page="1" pageScale="1" pageWidth="827" pageHeight="1169" math="0" shadow="0">
      <root>
        <mxCell id="0" />
        <mxCell id="1" parent="0" />
        <mxCell id="nBw4Y6OI8DKpcdZ5Eplv-1" value="&lt;h1&gt;&lt;span style=&quot;font-size: 16px;&quot;&gt;Activiti 工作原理&lt;/span&gt;&lt;/h1&gt;&lt;p style=&quot;font-size: 10px;&quot;&gt;&lt;font style=&quot;font-size: 10px;&quot;&gt;基于 activiti-engine 7.0.0.GA，参考网上一些入门教程（比如：https://www.baeldung.com/java-activiti）创建了一些测试工程，&lt;br&gt;参考：SpringBoot-Labs/workflow/activiti-simple-examples&lt;br&gt;&lt;span style=&quot;background-color: initial;&quot;&gt;源码细节没时间看先忽略，部分方法功能先大胆猜测，下面分析内容可能存在错误，后面使用过程中慢慢更正。&lt;br&gt;&lt;/span&gt;&lt;/font&gt;主要关注核心接口相关类实现，https://www.activiti.org/userguide/#chapterApi&lt;span style=&quot;background-color: initial;&quot;&gt;。&lt;/span&gt;&lt;/p&gt;" style="text;html=1;strokeColor=none;fillColor=none;spacing=5;spacingTop=-20;whiteSpace=wrap;overflow=hidden;rounded=0;verticalAlign=top;" parent="1" vertex="1">
          <mxGeometry x="40" y="10" width="600" height="110" as="geometry" />
        </mxCell>
        <mxCell id="nBw4Y6OI8DKpcdZ5Eplv-4" value="" style="edgeStyle=orthogonalEdgeStyle;rounded=1;orthogonalLoop=1;jettySize=auto;html=1;fontSize=10;" parent="1" source="nBw4Y6OI8DKpcdZ5Eplv-2" target="nBw4Y6OI8DKpcdZ5Eplv-3" edge="1">
          <mxGeometry relative="1" as="geometry" />
        </mxCell>
        <mxCell id="nBw4Y6OI8DKpcdZ5Eplv-30" style="edgeStyle=orthogonalEdgeStyle;rounded=1;orthogonalLoop=1;jettySize=auto;html=1;exitX=0.5;exitY=1;exitDx=0;exitDy=0;fontSize=10;" parent="1" source="nBw4Y6OI8DKpcdZ5Eplv-38" target="nBw4Y6OI8DKpcdZ5Eplv-29" edge="1">
          <mxGeometry relative="1" as="geometry" />
        </mxCell>
        <mxCell id="nBw4Y6OI8DKpcdZ5Eplv-2" value="工作流引擎创建" style="rounded=1;whiteSpace=wrap;html=1;fontSize=10;" parent="1" vertex="1">
          <mxGeometry x="40" y="160" width="200" height="60" as="geometry" />
        </mxCell>
        <mxCell id="Y24drFMDoc7ggRzdU2q5-2" value="" style="edgeStyle=orthogonalEdgeStyle;rounded=1;orthogonalLoop=1;jettySize=auto;html=1;" parent="1" source="nBw4Y6OI8DKpcdZ5Eplv-3" target="Y24drFMDoc7ggRzdU2q5-1" edge="1">
          <mxGeometry relative="1" as="geometry" />
        </mxCell>
        <mxCell id="nBw4Y6OI8DKpcdZ5Eplv-3" value="ProcessEngine processEngine = ProcessEngines.getDefaultProcessEngine();&lt;br&gt;&lt;font color=&quot;#007fff&quot;&gt;ProcessEngines 是ProcessEngine的容器&lt;/font&gt;" style="rounded=1;whiteSpace=wrap;html=1;fontSize=10;fillColor=#dae8fc;strokeColor=#6c8ebf;" parent="1" vertex="1">
          <mxGeometry x="280" y="160" width="200" height="60" as="geometry" />
        </mxCell>
        <mxCell id="nBw4Y6OI8DKpcdZ5Eplv-14" value="工作原理概述：&lt;br&gt;" style="text;html=1;strokeColor=none;fillColor=none;align=left;verticalAlign=top;whiteSpace=wrap;rounded=0;" parent="1" vertex="1">
          <mxGeometry x="680" y="10" width="320" height="130" as="geometry" />
        </mxCell>
        <mxCell id="nBw4Y6OI8DKpcdZ5Eplv-15" value="&lt;p style=&quot;margin: 4px 0px 0px; text-align: center;&quot;&gt;&lt;b&gt;ProcessEngines&lt;/b&gt;&lt;br style=&quot;font-size: 10px;&quot;&gt;&lt;/p&gt;&lt;hr style=&quot;font-size: 10px;&quot;&gt;&lt;p style=&quot;margin: 0px 0px 0px 4px;&quot;&gt;public static final String NAME_DEFAULT = &quot;default&quot;;&lt;/p&gt;&lt;p style=&quot;margin: 0px 0px 0px 4px;&quot;&gt;protected static boolean &lt;b&gt;isInitialized&lt;/b&gt;;&lt;/p&gt;&lt;p style=&quot;margin: 0px 0px 0px 4px;&quot;&gt;//工作流引擎名称 -&amp;gt; 引擎实例&lt;/p&gt;&lt;p style=&quot;margin: 0px 0px 0px 4px;&quot;&gt;protected static Map&amp;lt;String, ProcessEngine&amp;gt; &lt;b&gt;processEngines&lt;/b&gt; = new HashMap();&lt;/p&gt;&lt;p style=&quot;margin: 0px 0px 0px 4px;&quot;&gt;protected static Map&amp;lt;String, ProcessEngineInfo&amp;gt; processEngineInfosByName = new HashMap();&lt;/p&gt;&lt;p style=&quot;margin: 0px 0px 0px 4px;&quot;&gt;protected static Map&amp;lt;String, ProcessEngineInfo&amp;gt; processEngineInfosByResourceUrl = new HashMap();&lt;/p&gt;&lt;p style=&quot;margin: 0px 0px 0px 4px;&quot;&gt;protected static List&amp;lt;ProcessEngineInfo&amp;gt; processEngineInfos = new ArrayList();&lt;/p&gt;&lt;hr style=&quot;font-size: 10px;&quot;&gt;&lt;p style=&quot;margin: 0px 0px 0px 4px; font-size: 10px;&quot;&gt;重要接口方法：&lt;/p&gt;&lt;p style=&quot;margin: 0px 0px 0px 4px; font-size: 10px;&quot;&gt;获取默认工作流引擎，名为“default”（不存在则创建）;&lt;/p&gt;&lt;p style=&quot;margin: 0px 0px 0px 4px; font-size: 10px;&quot;&gt;注册、注销工作流引擎；&lt;/p&gt;&lt;p style=&quot;margin: 0px 0px 0px 4px; font-size: 10px;&quot;&gt;获取工作流引擎信息、查询工作流引擎；&lt;/p&gt;&lt;p style=&quot;margin: 0px 0px 0px 4px; font-size: 10px;&quot;&gt;销毁工作流引擎容器及内部的引擎实例。&lt;/p&gt;" style="verticalAlign=top;align=left;overflow=fill;fontSize=10;fontFamily=Helvetica;html=1;whiteSpace=wrap;fillColor=#dae8fc;strokeColor=#6c8ebf;" parent="1" vertex="1">
          <mxGeometry x="-520" y="160" width="480" height="200" as="geometry" />
        </mxCell>
        <mxCell id="nBw4Y6OI8DKpcdZ5Eplv-32" value="" style="edgeStyle=orthogonalEdgeStyle;rounded=1;orthogonalLoop=1;jettySize=auto;html=1;fontSize=10;" parent="1" source="nBw4Y6OI8DKpcdZ5Eplv-29" target="nBw4Y6OI8DKpcdZ5Eplv-31" edge="1">
          <mxGeometry relative="1" as="geometry" />
        </mxCell>
        <mxCell id="nBw4Y6OI8DKpcdZ5Eplv-29" value="工作流实例创建" style="rounded=1;whiteSpace=wrap;html=1;fontSize=10;" parent="1" vertex="1">
          <mxGeometry x="40" y="640" width="200" height="60" as="geometry" />
        </mxCell>
        <mxCell id="nBw4Y6OI8DKpcdZ5Eplv-31" value="工作流实例启动" style="rounded=1;whiteSpace=wrap;html=1;fontSize=10;" parent="1" vertex="1">
          <mxGeometry x="40" y="740" width="200" height="60" as="geometry" />
        </mxCell>
        <mxCell id="nBw4Y6OI8DKpcdZ5Eplv-39" value="" style="edgeStyle=orthogonalEdgeStyle;rounded=1;orthogonalLoop=1;jettySize=auto;html=1;exitX=0.5;exitY=1;exitDx=0;exitDy=0;fontSize=10;" parent="1" source="nBw4Y6OI8DKpcdZ5Eplv-2" target="nBw4Y6OI8DKpcdZ5Eplv-38" edge="1">
          <mxGeometry relative="1" as="geometry">
            <mxPoint x="140" y="220" as="sourcePoint" />
            <mxPoint x="140" y="560" as="targetPoint" />
          </mxGeometry>
        </mxCell>
        <mxCell id="nBw4Y6OI8DKpcdZ5Eplv-41" value="" style="edgeStyle=orthogonalEdgeStyle;rounded=1;orthogonalLoop=1;jettySize=auto;html=1;fontSize=10;" parent="1" source="nBw4Y6OI8DKpcdZ5Eplv-38" target="nBw4Y6OI8DKpcdZ5Eplv-40" edge="1">
          <mxGeometry relative="1" as="geometry" />
        </mxCell>
        <mxCell id="nBw4Y6OI8DKpcdZ5Eplv-38" value="工作流定义部署" style="rounded=1;whiteSpace=wrap;html=1;fontSize=10;" parent="1" vertex="1">
          <mxGeometry x="40" y="480" width="200" height="60" as="geometry" />
        </mxCell>
        <mxCell id="OgTEPhGzCHvkIs_55dda-4" value="" style="edgeStyle=orthogonalEdgeStyle;rounded=0;orthogonalLoop=1;jettySize=auto;html=1;" parent="1" source="nBw4Y6OI8DKpcdZ5Eplv-40" target="OgTEPhGzCHvkIs_55dda-3" edge="1">
          <mxGeometry relative="1" as="geometry" />
        </mxCell>
        <mxCell id="nBw4Y6OI8DKpcdZ5Eplv-40" value="RepositoryService repositoryService = processEngine.getRepositoryService();" style="rounded=1;whiteSpace=wrap;html=1;fontSize=10;fillColor=#dae8fc;strokeColor=#6c8ebf;" parent="1" vertex="1">
          <mxGeometry x="280" y="480" width="200" height="60" as="geometry" />
        </mxCell>
        <mxCell id="JoRYXo11--v7-uUJcfo4-2" value="" style="edgeStyle=orthogonalEdgeStyle;rounded=1;orthogonalLoop=1;jettySize=auto;html=1;" parent="1" source="Y24drFMDoc7ggRzdU2q5-1" target="JoRYXo11--v7-uUJcfo4-1" edge="1">
          <mxGeometry relative="1" as="geometry" />
        </mxCell>
        <mxCell id="Y24drFMDoc7ggRzdU2q5-1" value="init()&lt;br&gt;&lt;font color=&quot;#007fff&quot;&gt;工作流引擎容器初始化&lt;/font&gt;" style="rounded=1;whiteSpace=wrap;html=1;fontSize=10;" parent="1" vertex="1">
          <mxGeometry x="520" y="160" width="200" height="60" as="geometry" />
        </mxCell>
        <mxCell id="JoRYXo11--v7-uUJcfo4-4" value="" style="edgeStyle=orthogonalEdgeStyle;rounded=1;orthogonalLoop=1;jettySize=auto;html=1;" parent="1" source="JoRYXo11--v7-uUJcfo4-1" target="JoRYXo11--v7-uUJcfo4-3" edge="1">
          <mxGeometry relative="1" as="geometry" />
        </mxCell>
        <mxCell id="JoRYXo11--v7-uUJcfo4-7" style="edgeStyle=orthogonalEdgeStyle;rounded=1;orthogonalLoop=1;jettySize=auto;html=1;exitX=1;exitY=0.5;exitDx=0;exitDy=0;entryX=0;entryY=0.5;entryDx=0;entryDy=0;" parent="1" source="JoRYXo11--v7-uUJcfo4-1" target="JoRYXo11--v7-uUJcfo4-5" edge="1">
          <mxGeometry relative="1" as="geometry" />
        </mxCell>
        <mxCell id="JoRYXo11--v7-uUJcfo4-1" value="&lt;b&gt;加载配置文件创建工作流引擎实例并注册到ProcessEngins&lt;br&gt;&lt;/b&gt;&quot;activiti.cfg.xml&quot;、&quot;activiti-context.xml&quot;" style="rounded=1;whiteSpace=wrap;html=1;fontSize=10;" parent="1" vertex="1">
          <mxGeometry x="760" y="160" width="200" height="60" as="geometry" />
        </mxCell>
        <mxCell id="JoRYXo11--v7-uUJcfo4-10" style="edgeStyle=orthogonalEdgeStyle;rounded=1;orthogonalLoop=1;jettySize=auto;html=1;exitX=1;exitY=0.5;exitDx=0;exitDy=0;entryX=0;entryY=0.5;entryDx=0;entryDy=0;" parent="1" source="JoRYXo11--v7-uUJcfo4-3" target="JoRYXo11--v7-uUJcfo4-9" edge="1">
          <mxGeometry relative="1" as="geometry">
            <Array as="points">
              <mxPoint x="1220" y="190" />
              <mxPoint x="1220" y="310" />
              <mxPoint x="260" y="310" />
              <mxPoint x="260" y="350" />
            </Array>
          </mxGeometry>
        </mxCell>
        <mxCell id="JoRYXo11--v7-uUJcfo4-3" value="ProcessEngine processEngine = buildProcessEngine(resourceUrl);&lt;br&gt;&lt;font color=&quot;#007fff&quot;&gt;创建&quot;activiti.cfg.xml&quot;中定义的工作流引擎&lt;/font&gt;" style="rounded=1;whiteSpace=wrap;html=1;fontSize=10;fillColor=#dae8fc;strokeColor=#6c8ebf;" parent="1" vertex="1">
          <mxGeometry x="1000" y="160" width="200" height="60" as="geometry" />
        </mxCell>
        <mxCell id="JoRYXo11--v7-uUJcfo4-5" value="SpringConfigurationHelper#&lt;br&gt;buildProcessEngine()&lt;br&gt;&lt;font color=&quot;#007fff&quot;&gt;创建&quot;activiti-context.xml&quot;中定义的工作流引擎&lt;/font&gt;" style="rounded=1;whiteSpace=wrap;html=1;fontSize=10;fillColor=#dae8fc;strokeColor=#6c8ebf;" parent="1" vertex="1">
          <mxGeometry x="1000" y="240" width="200" height="60" as="geometry" />
        </mxCell>
        <mxCell id="JoRYXo11--v7-uUJcfo4-8" value="&lt;p style=&quot;margin: 4px 0px 0px; text-align: center;&quot;&gt;&lt;b&gt;ProcessEngine （I）&lt;/b&gt;&lt;br style=&quot;font-size: 10px;&quot;&gt;&lt;/p&gt;&lt;hr style=&quot;font-size: 10px;&quot;&gt;&lt;p style=&quot;margin: 0px 0px 0px 4px;&quot;&gt;&lt;/p&gt;&lt;p style=&quot;margin: 0px 0px 0px 4px;&quot;&gt;String getName();&lt;/p&gt;&lt;p style=&quot;margin: 0px 0px 0px 4px;&quot;&gt;void close();&lt;/p&gt;&lt;p style=&quot;margin: 0px 0px 0px 4px;&quot;&gt;RepositoryService &lt;b&gt;getRepositoryService&lt;/b&gt;();&lt;/p&gt;&lt;p style=&quot;margin: 0px 0px 0px 4px;&quot;&gt;RuntimeService &lt;b&gt;getRuntimeService&lt;/b&gt;();&lt;/p&gt;&lt;p style=&quot;margin: 0px 0px 0px 4px;&quot;&gt;TaskService &lt;b&gt;getTaskService&lt;/b&gt;();&lt;/p&gt;&lt;p style=&quot;margin: 0px 0px 0px 4px;&quot;&gt;HistoryService &lt;b&gt;getHistoryService&lt;/b&gt;();&lt;/p&gt;&lt;p style=&quot;margin: 0px 0px 0px 4px;&quot;&gt;ManagementService &lt;b&gt;getManagementService&lt;/b&gt;();&lt;/p&gt;&lt;p style=&quot;margin: 0px 0px 0px 4px;&quot;&gt;DynamicBpmnService &lt;b&gt;getDynamicBpmnService&lt;/b&gt;();&lt;/p&gt;&lt;p style=&quot;margin: 0px 0px 0px 4px;&quot;&gt;ProcessEngineConfiguration &lt;b&gt;getProcessEngineConfiguration&lt;/b&gt;();&lt;/p&gt;" style="verticalAlign=top;align=left;overflow=fill;fontSize=10;fontFamily=Helvetica;html=1;whiteSpace=wrap;fillColor=#fff2cc;strokeColor=#d6b656;" parent="1" vertex="1">
          <mxGeometry x="-1040" y="160" width="480" height="160" as="geometry" />
        </mxCell>
        <mxCell id="JoRYXo11--v7-uUJcfo4-17" value="" style="edgeStyle=orthogonalEdgeStyle;rounded=0;orthogonalLoop=1;jettySize=auto;html=1;" parent="1" source="JoRYXo11--v7-uUJcfo4-9" target="JoRYXo11--v7-uUJcfo4-16" edge="1">
          <mxGeometry relative="1" as="geometry" />
        </mxCell>
        <mxCell id="JoRYXo11--v7-uUJcfo4-18" value="配置类有多种实现这里暂只关注&lt;br&gt;StandaloneInMemProcessEngineConfiguration" style="edgeLabel;html=1;align=center;verticalAlign=middle;resizable=0;points=[];" parent="JoRYXo11--v7-uUJcfo4-17" vertex="1" connectable="0">
          <mxGeometry x="-0.0534" y="2" relative="1" as="geometry">
            <mxPoint as="offset" />
          </mxGeometry>
        </mxCell>
        <mxCell id="JoRYXo11--v7-uUJcfo4-9" value="processEngineConfiguration&lt;br&gt;.buildProcessEngine();" style="rounded=1;whiteSpace=wrap;html=1;fontSize=10;" parent="1" vertex="1">
          <mxGeometry x="280" y="320" width="200" height="60" as="geometry" />
        </mxCell>
        <mxCell id="JoRYXo11--v7-uUJcfo4-14" value="" style="edgeStyle=orthogonalEdgeStyle;rounded=0;orthogonalLoop=1;jettySize=auto;html=1;" parent="1" edge="1">
          <mxGeometry relative="1" as="geometry">
            <mxPoint x="740" y="380" as="sourcePoint" />
          </mxGeometry>
        </mxCell>
        <mxCell id="JoRYXo11--v7-uUJcfo4-15" value="&lt;div style=&quot;text-align: center;&quot;&gt;&lt;b&gt;ProcessEngineConfiguration&lt;/b&gt;&lt;b style=&quot;background-color: initial;&quot;&gt;（A）&lt;/b&gt;&lt;/div&gt;&lt;hr style=&quot;font-size: 10px;&quot;&gt;&lt;p style=&quot;margin: 0px 0px 0px 4px;&quot;&gt;&lt;/p&gt;&lt;p style=&quot;margin: 0px 0px 0px 4px; font-size: 10px;&quot;&gt;&lt;br style=&quot;font-size: 10px;&quot;&gt;&lt;/p&gt;" style="verticalAlign=top;align=left;overflow=fill;fontSize=10;fontFamily=Helvetica;html=1;whiteSpace=wrap;fillColor=#dae8fc;strokeColor=#6c8ebf;" parent="1" vertex="1">
          <mxGeometry x="-400" y="400" width="240" height="40" as="geometry" />
        </mxCell>
        <mxCell id="JoRYXo11--v7-uUJcfo4-25" value="" style="edgeStyle=orthogonalEdgeStyle;rounded=0;orthogonalLoop=1;jettySize=auto;html=1;" parent="1" source="JoRYXo11--v7-uUJcfo4-16" target="JoRYXo11--v7-uUJcfo4-24" edge="1">
          <mxGeometry relative="1" as="geometry" />
        </mxCell>
        <mxCell id="JoRYXo11--v7-uUJcfo4-16" value="StandaloneInMemProcessEngineConfiguration&lt;br&gt;#&lt;b&gt;buildProcessEngine&lt;/b&gt;()" style="rounded=1;whiteSpace=wrap;html=1;fontSize=10;fillColor=#dae8fc;strokeColor=#6c8ebf;" parent="1" vertex="1">
          <mxGeometry x="750" y="320" width="220" height="60" as="geometry" />
        </mxCell>
        <mxCell id="JoRYXo11--v7-uUJcfo4-22" style="edgeStyle=orthogonalEdgeStyle;rounded=0;orthogonalLoop=1;jettySize=auto;html=1;exitX=0.5;exitY=0;exitDx=0;exitDy=0;entryX=0.5;entryY=1;entryDx=0;entryDy=0;endArrow=block;endFill=0;" parent="1" source="JoRYXo11--v7-uUJcfo4-19" target="JoRYXo11--v7-uUJcfo4-15" edge="1">
          <mxGeometry relative="1" as="geometry" />
        </mxCell>
        <mxCell id="JoRYXo11--v7-uUJcfo4-19" value="&lt;div style=&quot;text-align: center;&quot;&gt;&lt;b&gt;ProcessEngineConfigurationImpl&lt;/b&gt;&lt;b style=&quot;background-color: initial;&quot;&gt;（A）&lt;/b&gt;&lt;/div&gt;&lt;hr style=&quot;font-size: 10px;&quot;&gt;&lt;p style=&quot;margin: 0px 0px 0px 4px;&quot;&gt;&lt;/p&gt;&lt;p style=&quot;margin: 0px 0px 0px 4px; font-size: 10px;&quot;&gt;&lt;br style=&quot;font-size: 10px;&quot;&gt;&lt;/p&gt;" style="verticalAlign=top;align=left;overflow=fill;fontSize=10;fontFamily=Helvetica;html=1;whiteSpace=wrap;" parent="1" vertex="1">
          <mxGeometry x="-400" y="480" width="240" height="40" as="geometry" />
        </mxCell>
        <mxCell id="JoRYXo11--v7-uUJcfo4-21" style="edgeStyle=orthogonalEdgeStyle;rounded=0;orthogonalLoop=1;jettySize=auto;html=1;exitX=0.5;exitY=0;exitDx=0;exitDy=0;entryX=0.5;entryY=1;entryDx=0;entryDy=0;endArrow=block;endFill=0;" parent="1" source="JoRYXo11--v7-uUJcfo4-20" target="JoRYXo11--v7-uUJcfo4-19" edge="1">
          <mxGeometry relative="1" as="geometry" />
        </mxCell>
        <mxCell id="JoRYXo11--v7-uUJcfo4-23" value="..." style="edgeLabel;html=1;align=center;verticalAlign=middle;resizable=0;points=[];" parent="JoRYXo11--v7-uUJcfo4-21" vertex="1" connectable="0">
          <mxGeometry x="-0.1184" y="-1" relative="1" as="geometry">
            <mxPoint x="-1" as="offset" />
          </mxGeometry>
        </mxCell>
        <mxCell id="JoRYXo11--v7-uUJcfo4-20" value="&lt;p style=&quot;margin: 4px 0px 0px; text-align: center;&quot;&gt;&lt;b&gt;StandaloneInMemProcessEngineConfiguration&lt;/b&gt;&lt;br style=&quot;font-size: 10px;&quot;&gt;&lt;/p&gt;&lt;hr style=&quot;font-size: 10px;&quot;&gt;&lt;p style=&quot;margin: 0px 0px 0px 4px;&quot;&gt;有非常多的属性，都是从上面两个抽象类继承过来的，这里只列举重要且常用的属性&lt;/p&gt;&lt;p style=&quot;margin: 0px 0px 0px 4px;&quot;&gt;&lt;br&gt;&lt;/p&gt;&lt;p style=&quot;margin: 0px 0px 0px 4px;&quot;&gt;&lt;br&gt;&lt;/p&gt;&lt;hr style=&quot;font-size: 10px;&quot;&gt;&lt;p style=&quot;margin: 0px 0px 0px 4px; font-size: 10px;&quot;&gt;重要接口方法：&lt;/p&gt;&lt;p style=&quot;margin: 0px 0px 0px 4px; font-size: 10px;&quot;&gt;&lt;br&gt;&lt;/p&gt;" style="verticalAlign=top;align=left;overflow=fill;fontSize=10;fontFamily=Helvetica;html=1;whiteSpace=wrap;" parent="1" vertex="1">
          <mxGeometry x="-520" y="560" width="480" height="120" as="geometry" />
        </mxCell>
        <mxCell id="JoRYXo11--v7-uUJcfo4-27" value="" style="edgeStyle=orthogonalEdgeStyle;rounded=0;orthogonalLoop=1;jettySize=auto;html=1;" parent="1" source="JoRYXo11--v7-uUJcfo4-24" target="JoRYXo11--v7-uUJcfo4-26" edge="1">
          <mxGeometry relative="1" as="geometry" />
        </mxCell>
        <mxCell id="OgTEPhGzCHvkIs_55dda-2" value="" style="edgeStyle=orthogonalEdgeStyle;rounded=0;orthogonalLoop=1;jettySize=auto;html=1;" parent="1" source="JoRYXo11--v7-uUJcfo4-24" target="OgTEPhGzCHvkIs_55dda-1" edge="1">
          <mxGeometry relative="1" as="geometry" />
        </mxCell>
        <mxCell id="JoRYXo11--v7-uUJcfo4-24" value="&lt;b&gt;init&lt;/b&gt;();&lt;br&gt;&lt;font color=&quot;#007fff&quot;&gt;初始化了很多组件&lt;/font&gt;" style="rounded=1;whiteSpace=wrap;html=1;fontSize=10;fillColor=#fff2cc;strokeColor=#d6b656;" parent="1" vertex="1">
          <mxGeometry x="1000" y="320" width="200" height="60" as="geometry" />
        </mxCell>
        <mxCell id="JoRYXo11--v7-uUJcfo4-26" value="ProcessEngineImpl processEngine = new &lt;b&gt;ProcessEngineImpl&lt;/b&gt;(this);" style="rounded=1;whiteSpace=wrap;html=1;fontSize=10;fillColor=#fff2cc;strokeColor=#d6b656;" parent="1" vertex="1">
          <mxGeometry x="1000" y="400" width="200" height="60" as="geometry" />
        </mxCell>
        <mxCell id="JoRYXo11--v7-uUJcfo4-30" style="edgeStyle=orthogonalEdgeStyle;rounded=0;orthogonalLoop=1;jettySize=auto;html=1;exitX=0.5;exitY=0;exitDx=0;exitDy=0;entryX=0.5;entryY=1;entryDx=0;entryDy=0;dashed=1;endArrow=block;endFill=1;" parent="1" source="JoRYXo11--v7-uUJcfo4-29" target="JoRYXo11--v7-uUJcfo4-8" edge="1">
          <mxGeometry relative="1" as="geometry" />
        </mxCell>
        <mxCell id="JoRYXo11--v7-uUJcfo4-29" value="&lt;p style=&quot;margin: 4px 0px 0px; text-align: center;&quot;&gt;&lt;b&gt;ProcessEngineImpl&lt;/b&gt;&lt;br style=&quot;font-size: 10px;&quot;&gt;&lt;/p&gt;&lt;hr style=&quot;font-size: 10px;&quot;&gt;&lt;p style=&quot;margin: 0px 0px 0px 4px;&quot;&gt;protected String name;&lt;/p&gt;&lt;p style=&quot;margin: 0px 0px 0px 4px;&quot;&gt;protected RepositoryService &lt;b&gt;repositoryService&lt;/b&gt;;&lt;/p&gt;&lt;p style=&quot;margin: 0px 0px 0px 4px;&quot;&gt;protected RuntimeService &lt;b&gt;runtimeService&lt;/b&gt;;&lt;/p&gt;&lt;p style=&quot;margin: 0px 0px 0px 4px;&quot;&gt;protected HistoryService &lt;b&gt;historicDataService&lt;/b&gt;;&lt;/p&gt;&lt;p style=&quot;margin: 0px 0px 0px 4px;&quot;&gt;protected TaskService &lt;b&gt;taskService&lt;/b&gt;;&lt;/p&gt;&lt;p style=&quot;margin: 0px 0px 0px 4px;&quot;&gt;protected ManagementService &lt;b&gt;managementService&lt;/b&gt;;&lt;/p&gt;&lt;p style=&quot;margin: 0px 0px 0px 4px;&quot;&gt;protected DynamicBpmnService &lt;b&gt;dynamicBpmnService&lt;/b&gt;;&lt;/p&gt;&lt;p style=&quot;margin: 0px 0px 0px 4px;&quot;&gt;protected AsyncExecutor &lt;b&gt;asyncExecutor&lt;/b&gt;;&lt;/p&gt;&lt;p style=&quot;margin: 0px 0px 0px 4px;&quot;&gt;protected CommandExecutor &lt;b&gt;commandExecutor&lt;/b&gt;;&lt;/p&gt;&lt;p style=&quot;margin: 0px 0px 0px 4px;&quot;&gt;protected Map&amp;lt;Class&amp;lt;?&amp;gt;, SessionFactory&amp;gt; sessionFactories;&lt;/p&gt;&lt;p style=&quot;margin: 0px 0px 0px 4px;&quot;&gt;protected TransactionContextFactory transactionContextFactory;&lt;/p&gt;&lt;p style=&quot;margin: 0px 0px 0px 4px;&quot;&gt;protected ProcessEngineConfigurationImpl &lt;b&gt;processEngineConfiguration&lt;/b&gt;;&lt;/p&gt;&lt;hr style=&quot;font-size: 10px;&quot;&gt;&lt;p style=&quot;margin: 0px 0px 0px 4px; font-size: 10px;&quot;&gt;&lt;br&gt;&lt;/p&gt;" style="verticalAlign=top;align=left;overflow=fill;fontSize=10;fontFamily=Helvetica;html=1;whiteSpace=wrap;" parent="1" vertex="1">
          <mxGeometry x="-1040" y="360" width="480" height="200" as="geometry" />
        </mxCell>
        <mxCell id="OgTEPhGzCHvkIs_55dda-1" value="TODO&lt;br&gt;&lt;font color=&quot;#007fff&quot;&gt;数据表的检查和创建就是在这里面完成的&lt;/font&gt;" style="rounded=1;whiteSpace=wrap;html=1;fontSize=10;fillColor=#f8cecc;strokeColor=#b85450;" parent="1" vertex="1">
          <mxGeometry x="1241" y="320" width="200" height="60" as="geometry" />
        </mxCell>
        <mxCell id="OgTEPhGzCHvkIs_55dda-3" value="&lt;div&gt;Deployment deployment = repositoryService.&lt;b&gt;createDeployment&lt;/b&gt;()&lt;/div&gt;&lt;div&gt;.addClasspathResource(&quot;vocation-request.bpmn20.xml&quot;)&lt;/div&gt;&lt;div&gt;.&lt;b&gt;deploy&lt;/b&gt;();&lt;/div&gt;" style="rounded=1;whiteSpace=wrap;html=1;fontSize=10;fillColor=#dae8fc;strokeColor=#6c8ebf;" parent="1" vertex="1">
          <mxGeometry x="280" y="560" width="200" height="60" as="geometry" />
        </mxCell>
        <mxCell id="cMpXQDRhNXtNkPlsPNzg-1" value="&lt;div style=&quot;text-align: center;&quot;&gt;&lt;b&gt;ActivitiEvent&lt;/b&gt;&lt;b style=&quot;background-color: initial;&quot;&gt;（I）&lt;/b&gt;&lt;/div&gt;&lt;hr style=&quot;font-size: 10px;&quot;&gt;&lt;p style=&quot;margin: 0px 0px 0px 4px;&quot;&gt;&lt;/p&gt;&lt;p style=&quot;margin: 0px 0px 0px 4px; font-size: 10px;&quot;&gt;此接口描述的事件和BPMN中的事件貌似不是同一个概念，这里的事件更像是生命周期事件，是用于给外部listeners监听的发生在Activiti 引擎中的事件。&lt;/p&gt;" style="verticalAlign=top;align=left;overflow=fill;fontSize=10;fontFamily=Helvetica;html=1;whiteSpace=wrap;fillColor=#fff2cc;strokeColor=#d6b656;" parent="1" vertex="1">
          <mxGeometry x="-520" y="720" width="480" height="80" as="geometry" />
        </mxCell>
        <mxCell id="cMpXQDRhNXtNkPlsPNzg-2" value="&lt;p style=&quot;margin: 4px 0px 0px; text-align: center;&quot;&gt;&lt;b&gt;ActivitiEventType （E）&lt;/b&gt;&lt;br style=&quot;font-size: 10px;&quot;&gt;&lt;/p&gt;&lt;hr style=&quot;font-size: 10px;&quot;&gt;&lt;p style=&quot;margin: 0px 0px 0px 4px;&quot;&gt;ENTITY_CREATED,&lt;/p&gt;&lt;p style=&quot;margin: 0px 0px 0px 4px;&quot;&gt;/**&lt;/p&gt;&lt;p style=&quot;margin: 0px 0px 0px 4px;&quot;&gt;&amp;nbsp;* 已创建新实体，并且作为创建此特定实体的结果而创建和初始化的所有子实体也已创建和初始化。&lt;/p&gt;&lt;p style=&quot;margin: 0px 0px 0px 4px;&quot;&gt;&amp;nbsp;*/&lt;/p&gt;&lt;p style=&quot;margin: 0px 0px 0px 4px;&quot;&gt;ENTITY_INITIALIZED,&lt;/p&gt;&lt;p style=&quot;margin: 0px 0px 0px 4px;&quot;&gt;/**&lt;/p&gt;&lt;p style=&quot;margin: 0px 0px 0px 4px;&quot;&gt;&amp;nbsp;* 已更新现有实体。&lt;/p&gt;&lt;p style=&quot;margin: 0px 0px 0px 4px;&quot;&gt;&amp;nbsp;*/&lt;/p&gt;&lt;p style=&quot;margin: 0px 0px 0px 4px;&quot;&gt;ENTITY_UPDATED,&lt;/p&gt;&lt;p style=&quot;margin: 0px 0px 0px 4px;&quot;&gt;/**&lt;/p&gt;&lt;p style=&quot;margin: 0px 0px 0px 4px;&quot;&gt;&amp;nbsp;* 已删除现有实体。&lt;/p&gt;&lt;p style=&quot;margin: 0px 0px 0px 4px;&quot;&gt;&amp;nbsp;*/&lt;/p&gt;&lt;p style=&quot;margin: 0px 0px 0px 4px;&quot;&gt;ENTITY_DELETED,&lt;/p&gt;&lt;p style=&quot;margin: 0px 0px 0px 4px;&quot;&gt;/**&lt;/p&gt;&lt;p style=&quot;margin: 0px 0px 0px 4px;&quot;&gt;&amp;nbsp;* 已暂停现有实体。&lt;/p&gt;&lt;p style=&quot;margin: 0px 0px 0px 4px;&quot;&gt;&amp;nbsp;*/&lt;/p&gt;&lt;p style=&quot;margin: 0px 0px 0px 4px;&quot;&gt;ENTITY_SUSPENDED,&lt;/p&gt;&lt;p style=&quot;margin: 0px 0px 0px 4px;&quot;&gt;/**&lt;/p&gt;&lt;p style=&quot;margin: 0px 0px 0px 4px;&quot;&gt;&amp;nbsp;* 已激活现有实体。&lt;/p&gt;&lt;p style=&quot;margin: 0px 0px 0px 4px;&quot;&gt;&amp;nbsp;*/&lt;/p&gt;&lt;p style=&quot;margin: 0px 0px 0px 4px;&quot;&gt;ENTITY_ACTIVATED,&lt;/p&gt;&lt;p style=&quot;margin: 0px 0px 0px 4px;&quot;&gt;/**&lt;/p&gt;&lt;p style=&quot;margin: 0px 0px 0px 4px;&quot;&gt;&amp;nbsp;* 已安排定时器。&lt;/p&gt;&lt;p style=&quot;margin: 0px 0px 0px 4px;&quot;&gt;&amp;nbsp;*/&lt;/p&gt;&lt;p style=&quot;margin: 0px 0px 0px 4px;&quot;&gt;TIMER_SCHEDULED,&lt;/p&gt;&lt;p style=&quot;margin: 0px 0px 0px 4px;&quot;&gt;/**&lt;/p&gt;&lt;p style=&quot;margin: 0px 0px 0px 4px;&quot;&gt;&amp;nbsp;* 定时器已成功触发。&lt;/p&gt;&lt;p style=&quot;margin: 0px 0px 0px 4px;&quot;&gt;&amp;nbsp;*/&lt;/p&gt;&lt;p style=&quot;margin: 0px 0px 0px 4px;&quot;&gt;TIMER_FIRED,&lt;/p&gt;&lt;p style=&quot;margin: 0px 0px 0px 4px;&quot;&gt;/**&lt;/p&gt;&lt;p style=&quot;margin: 0px 0px 0px 4px;&quot;&gt;&amp;nbsp;* 定时器已取消（例如，与其绑定的用户任务早于预期完成）。&lt;/p&gt;&lt;p style=&quot;margin: 0px 0px 0px 4px;&quot;&gt;&amp;nbsp;*/&lt;/p&gt;&lt;p style=&quot;margin: 0px 0px 0px 4px;&quot;&gt;JOB_CANCELED,&lt;/p&gt;&lt;p style=&quot;margin: 0px 0px 0px 4px;&quot;&gt;/**&lt;/p&gt;&lt;p style=&quot;margin: 0px 0px 0px 4px;&quot;&gt;&amp;nbsp;* 作业已成功执行。&lt;/p&gt;&lt;p style=&quot;margin: 0px 0px 0px 4px;&quot;&gt;&amp;nbsp;*/&lt;/p&gt;&lt;p style=&quot;margin: 0px 0px 0px 4px;&quot;&gt;JOB_EXECUTION_SUCCESS,&lt;/p&gt;&lt;p style=&quot;margin: 0px 0px 0px 4px;&quot;&gt;/**&lt;/p&gt;&lt;p style=&quot;margin: 0px 0px 0px 4px;&quot;&gt;&amp;nbsp;* 作业已执行，但失败。事件应为 ActivitiExceptionEvent 的实例。&lt;/p&gt;&lt;p style=&quot;margin: 0px 0px 0px 4px;&quot;&gt;&amp;nbsp;*/&lt;/p&gt;&lt;p style=&quot;margin: 0px 0px 0px 4px;&quot;&gt;JOB_EXECUTION_FAILURE,&lt;/p&gt;&lt;p style=&quot;margin: 0px 0px 0px 4px;&quot;&gt;/**&lt;/p&gt;&lt;p style=&quot;margin: 0px 0px 0px 4px;&quot;&gt;&amp;nbsp;* 作业的重试次数已减少。&lt;/p&gt;&lt;p style=&quot;margin: 0px 0px 0px 4px;&quot;&gt;&amp;nbsp;*/&lt;/p&gt;&lt;p style=&quot;margin: 0px 0px 0px 4px;&quot;&gt;JOB_RETRIES_DECREMENTED,&lt;/p&gt;&lt;p style=&quot;margin: 0px 0px 0px 4px;&quot;&gt;/**&lt;/p&gt;&lt;p style=&quot;margin: 0px 0px 0px 4px;&quot;&gt;&amp;nbsp;* 用于自定义事件的事件类型。这些类型的事件永远不会由引擎本身抛出，而只能由外部 API 调用来分派事件。&lt;/p&gt;&lt;p style=&quot;margin: 0px 0px 0px 4px;&quot;&gt;&amp;nbsp;*/&lt;/p&gt;&lt;p style=&quot;margin: 0px 0px 0px 4px;&quot;&gt;CUSTOM,&lt;/p&gt;&lt;p style=&quot;margin: 0px 0px 0px 4px;&quot;&gt;/**&lt;/p&gt;&lt;p style=&quot;margin: 0px 0px 0px 4px;&quot;&gt;&amp;nbsp;* 分派此事件的流程引擎已创建并准备就绪。&lt;/p&gt;&lt;p style=&quot;margin: 0px 0px 0px 4px;&quot;&gt;&amp;nbsp;*/&lt;/p&gt;&lt;p style=&quot;margin: 0px 0px 0px 4px;&quot;&gt;ENGINE_CREATED,&lt;/p&gt;&lt;p style=&quot;margin: 0px 0px 0px 4px;&quot;&gt;/**&lt;/p&gt;&lt;p style=&quot;margin: 0px 0px 0px 4px;&quot;&gt;&amp;nbsp;* 分派此事件的流程引擎已关闭，不可再使用。&lt;/p&gt;&lt;p style=&quot;margin: 0px 0px 0px 4px;&quot;&gt;&amp;nbsp;*/&lt;/p&gt;&lt;p style=&quot;margin: 0px 0px 0px 4px;&quot;&gt;ENGINE_CLOSED,&lt;/p&gt;&lt;p style=&quot;margin: 0px 0px 0px 4px;&quot;&gt;/**&lt;/p&gt;&lt;p style=&quot;margin: 0px 0px 0px 4px;&quot;&gt;&amp;nbsp;* 活动正在开始执行。此事件在活动执行之前立即分派。&lt;/p&gt;&lt;p style=&quot;margin: 0px 0px 0px 4px;&quot;&gt;&amp;nbsp;*/&lt;/p&gt;&lt;p style=&quot;margin: 0px 0px 0px 4px;&quot;&gt;ACTIVITY_STARTED,&lt;/p&gt;&lt;p style=&quot;margin: 0px 0px 0px 4px;&quot;&gt;/**&lt;/p&gt;&lt;p style=&quot;margin: 0px 0px 0px 4px;&quot;&gt;&amp;nbsp;* 活动已成功完成。&lt;/p&gt;&lt;p style=&quot;margin: 0px 0px 0px 4px;&quot;&gt;&amp;nbsp;*/&lt;/p&gt;&lt;p style=&quot;margin: 0px 0px 0px 4px;&quot;&gt;ACTIVITY_COMPLETED,&lt;/p&gt;&lt;p style=&quot;margin: 0px 0px 0px 4px;&quot;&gt;/**&lt;/p&gt;&lt;p style=&quot;margin: 0px 0px 0px 4px;&quot;&gt;&amp;nbsp;* 由于边界事件，活动已被取消。&lt;/p&gt;&lt;p style=&quot;margin: 0px 0px 0px 4px;&quot;&gt;&amp;nbsp;*/&lt;/p&gt;&lt;p style=&quot;margin: 0px 0px 0px 4px;&quot;&gt;ACTIVITY_CANCELLED,&lt;/p&gt;&lt;p style=&quot;margin: 0px 0px 0px 4px;&quot;&gt;/**&lt;/p&gt;&lt;p style=&quot;margin: 0px 0px 0px 4px;&quot;&gt;&amp;nbsp;* 活动已接收到信号。在活动响应信号后分派此事件。&lt;/p&gt;&lt;p style=&quot;margin: 0px 0px 0px 4px;&quot;&gt;&amp;nbsp;*/&lt;/p&gt;&lt;p style=&quot;margin: 0px 0px 0px 4px;&quot;&gt;ACTIVITY_SIGNALED,&lt;/p&gt;&lt;p style=&quot;margin: 0px 0px 0px 4px;&quot;&gt;/**&lt;/p&gt;&lt;p style=&quot;margin: 0px 0px 0px 4px;&quot;&gt;&amp;nbsp;* 活动将被执行以对另一个活动进行补偿。该事件针对即将用于补偿的活动进行。&lt;/p&gt;&lt;p style=&quot;margin: 0px 0px 0px 4px;&quot;&gt;&amp;nbsp;*/&lt;/p&gt;&lt;p style=&quot;margin: 0px 0px 0px 4px;&quot;&gt;ACTIVITY_COMPENSATE,&lt;/p&gt;&lt;p style=&quot;margin: 0px 0px 0px 4px;&quot;&gt;/**&lt;/p&gt;&lt;p style=&quot;margin: 0px 0px 0px 4px;&quot;&gt;&amp;nbsp;* 边界、中间或子流程启动消息捕获事件已启动，正在等待消息。&lt;/p&gt;&lt;p style=&quot;margin: 0px 0px 0px 4px;&quot;&gt;&amp;nbsp;*/&lt;/p&gt;&lt;p style=&quot;margin: 0px 0px 0px 4px;&quot;&gt;ACTIVITY_MESSAGE_WAITING,&lt;/p&gt;&lt;p style=&quot;margin: 0px 0px 0px 4px;&quot;&gt;/**&lt;/p&gt;&lt;p style=&quot;margin: 0px 0px 0px 4px;&quot;&gt;&amp;nbsp;* 活动已收到消息事件。在活动实际收到消息之前分派此事件。如果消息成功传递，则此事件将后跟 ACTIVITY_SIGNALED 事件或涉及活动的 ACTIVITY_COMPLETE。&lt;/p&gt;&lt;p style=&quot;margin: 0px 0px 0px 4px;&quot;&gt;&amp;nbsp;*/&lt;/p&gt;&lt;p style=&quot;margin: 0px 0px 0px 4px;&quot;&gt;ACTIVITY_MESSAGE_RECEIVED,&lt;/p&gt;&lt;p style=&quot;margin: 0px 0px 0px 4px;&quot;&gt;/**&lt;/p&gt;&lt;p style=&quot;margin: 0px 0px 0px 4px;&quot;&gt;&amp;nbsp;* 活动已收到错误事件。在活动实际收到错误之前分派此事件。如果错误成功传递，则此事件将后跟 ACTIVITY_SIGNALED 事件或涉及活动的 ACTIVITY_COMPLETE。&lt;/p&gt;&lt;p style=&quot;margin: 0px 0px 0px 4px;&quot;&gt;&amp;nbsp;*/&lt;/p&gt;&lt;p style=&quot;margin: 0px 0px 0px 4px;&quot;&gt;ACTIVITY_ERROR_RECEIVED,&lt;/p&gt;&lt;p style=&quot;margin: 0px 0px 0px 4px;&quot;&gt;/**&lt;/p&gt;&lt;p style=&quot;margin: 0px 0px 0px 4px;&quot;&gt;&amp;nbsp;* 创建 HistoricActivityInstance 时分派的事件。这是 ENTITY_CREATED 和 ENTITY_INITIALIZED 事件的专业版本，用例与 ACTIVITY_STARTED 相同，但包含略有不同的数据。&lt;/p&gt;&lt;p style=&quot;margin: 0px 0px 0px 4px;&quot;&gt;&amp;nbsp;* 请注意，必须启用历史记录（最低级别为 ACTIVITY）才能接收此事件。&lt;/p&gt;&lt;p style=&quot;margin: 0px 0px 0px 4px;&quot;&gt;&amp;nbsp;*/&lt;/p&gt;&lt;p style=&quot;margin: 0px 0px 0px 4px;&quot;&gt;HISTORIC_ACTIVITY_INSTANCE_CREATED,&lt;/p&gt;&lt;p style=&quot;margin: 0px 0px 0px 4px;&quot;&gt;/**&lt;/p&gt;&lt;p style=&quot;margin: 0px 0px 0px 4px;&quot;&gt;&amp;nbsp;* 将 HistoricActivityInstance 标记为结束时分派的事件。这是 ENTITY_UPDATED 事件的专业版本，用例与 ACTIVITY_COMPLETED 相同，但包含略有不同的数据（例如结束时间、持续时间等）。&lt;/p&gt;&lt;p style=&quot;margin: 0px 0px 0px 4px;&quot;&gt;&amp;nbsp;* 请注意，必须启用历史记录（最低级别为 ACTIVITY）才能接收此事件。&lt;/p&gt;&lt;p style=&quot;margin: 0px 0px 0px 4px;&quot;&gt;&amp;nbsp;*/&lt;/p&gt;&lt;p style=&quot;margin: 0px 0px 0px 4px;&quot;&gt;HISTORIC_ACTIVITY_INSTANCE_ENDED,&lt;/p&gt;&lt;p style=&quot;margin: 0px 0px 0px 4px;&quot;&gt;/**&lt;/p&gt;&lt;p style=&quot;margin: 0px 0px 0px 4px;&quot;&gt;&amp;nbsp;* 表示引擎已经采取（即遵循）了从源活动到目标活动的序列流。&lt;/p&gt;&lt;p style=&quot;margin: 0px 0px 0px 4px;&quot;&gt;&amp;nbsp;*/&lt;/p&gt;&lt;p style=&quot;margin: 0px 0px 0px 4px;&quot;&gt;SEQUENCEFLOW_TAKEN,&lt;/p&gt;&lt;p style=&quot;margin: 0px 0px 0px 4px;&quot;&gt;/**&lt;/p&gt;&lt;p style=&quot;margin: 0px 0px 0px 4px;&quot;&gt;&amp;nbsp;* 当 BPMN 错误被抛出，但在流程内未被捕获时。&lt;/p&gt;&lt;p style=&quot;margin: 0px 0px 0px 4px;&quot;&gt;&amp;nbsp;*/&lt;/p&gt;&lt;p style=&quot;margin: 0px 0px 0px 4px;&quot;&gt;UNCAUGHT_BPMN_ERROR,&lt;/p&gt;&lt;p style=&quot;margin: 0px 0px 0px 4px;&quot;&gt;/**&lt;/p&gt;&lt;p style=&quot;margin: 0px 0px 0px 4px;&quot;&gt;&amp;nbsp;* 已创建新变量。&lt;/p&gt;&lt;p style=&quot;margin: 0px 0px 0px 4px;&quot;&gt;&amp;nbsp;*/&lt;/p&gt;&lt;p style=&quot;margin: 0px 0px 0px 4px;&quot;&gt;VARIABLE_CREATED,&lt;/p&gt;&lt;p style=&quot;margin: 0px 0px 0px 4px;&quot;&gt;/**&lt;/p&gt;&lt;p style=&quot;margin: 0px 0px 0px 4px;&quot;&gt;&amp;nbsp;* 已更新现有变量。&lt;/p&gt;&lt;p style=&quot;margin: 0px 0px 0px 4px;&quot;&gt;&amp;nbsp;*/&lt;/p&gt;&lt;p style=&quot;margin: 0px 0px 0px 4px;&quot;&gt;VARIABLE_UPDATED,&lt;/p&gt;&lt;p style=&quot;margin: 0px 0px 0px 4px;&quot;&gt;/**&lt;/p&gt;&lt;p style=&quot;margin: 0px 0px 0px 4px;&quot;&gt;&amp;nbsp;* 已删除现有变量。&lt;/p&gt;&lt;p style=&quot;margin: 0px 0px 0px 4px;&quot;&gt;&amp;nbsp;*/&lt;/p&gt;&lt;p style=&quot;margin: 0px 0px 0px 4px;&quot;&gt;VARIABLE_DELETED,&lt;/p&gt;&lt;p style=&quot;margin: 0px 0px 0px 4px;&quot;&gt;/**&lt;/p&gt;&lt;p style=&quot;margin: 0px 0px 0px 4px;&quot;&gt;&amp;nbsp;* 已创建任务。当任务完全初始化时抛出此事件（在 TaskListener.EVENTNAME_CREATE 之前）。&lt;/p&gt;&lt;p style=&quot;margin: 0px 0px 0px 4px;&quot;&gt;&amp;nbsp;*/&lt;/p&gt;&lt;p style=&quot;margin: 0px 0px 0px 4px;&quot;&gt;TASK_CREATED,&lt;/p&gt;&lt;p style=&quot;margin: 0px 0px 0px 4px;&quot;&gt;/**&lt;/p&gt;&lt;p style=&quot;margin: 0px 0px 0px 4px;&quot;&gt;&amp;nbsp;* 已分配任务。与 ENTITY_UPDATED 事件一起抛出此事件。&lt;/p&gt;&lt;p style=&quot;margin: 0px 0px 0px 4px;&quot;&gt;&amp;nbsp;*/&lt;/p&gt;&lt;p style=&quot;margin: 0px 0px 0px 4px;&quot;&gt;TASK_ASSIGNED,&lt;/p&gt;&lt;p style=&quot;margin: 0px 0px 0px 4px;&quot;&gt;/**&lt;/p&gt;&lt;p style=&quot;margin: 0px 0px 0px 4px;&quot;&gt;&amp;nbsp;* 任务已完成。在删除任务实体（ENTITY_DELETED）之前分派此事件。如果任务是流程的一部分，则在任务完成的结果下，此事件被分派之前进程继续进行。在这种情况下，将为与任务对应的活动之后分派 ACTIVITY_COMPLETED 事件。&lt;/p&gt;&lt;p style=&quot;margin: 0px 0px 0px 4px;&quot;&gt;&amp;nbsp;*/&lt;/p&gt;&lt;p style=&quot;margin: 0px 0px 0px 4px;&quot;&gt;TASK_COMPLETED,&lt;/p&gt;&lt;p style=&quot;margin: 0px 0px 0px 4px;&quot;&gt;/**&lt;/p&gt;&lt;p style=&quot;margin: 0px 0px 0px 4px;&quot;&gt;&amp;nbsp;* 流程实例已启动。在启动先前创建的流程实例时分派。PROCESS_STARTED 事件在相关事件 ENTITY_INITIALIZED 之后分派。&lt;/p&gt;&lt;p style=&quot;margin: 0px 0px 0px 4px;&quot;&gt;&amp;nbsp;*/&lt;/p&gt;&lt;p style=&quot;margin: 0px 0px 0px 4px;&quot;&gt;PROCESS_STARTED,&lt;/p&gt;&lt;p style=&quot;margin: 0px 0px 0px 4px;&quot;&gt;/**&lt;/p&gt;&lt;p style=&quot;margin: 0px 0px 0px 4px;&quot;&gt;&amp;nbsp;* 流程已完成。在最后一个活动 ACTIVITY_COMPLETED 之后分派。当流程实例达到无法采取任何转换的状态时，流程即完成。&lt;/p&gt;&lt;p style=&quot;margin: 0px 0px 0px 4px;&quot;&gt;&amp;nbsp;*/&lt;/p&gt;&lt;p style=&quot;margin: 0px 0px 0px 4px;&quot;&gt;PROCESS_COMPLETED,&lt;/p&gt;&lt;p style=&quot;margin: 0px 0px 0px 4px;&quot;&gt;/**&lt;/p&gt;&lt;p style=&quot;margin: 0px 0px 0px 4px;&quot;&gt;&amp;nbsp;* 流程已使用错误结束事件完成。&lt;/p&gt;&lt;p style=&quot;margin: 0px 0px 0px 4px;&quot;&gt;&amp;nbsp;*/&lt;/p&gt;&lt;p style=&quot;margin: 0px 0px 0px 4px;&quot;&gt;PROCESS_COMPLETED_WITH_ERROR_END_EVENT,&lt;/p&gt;&lt;p style=&quot;margin: 0px 0px 0px 4px;&quot;&gt;/**&lt;/p&gt;&lt;p style=&quot;margin: 0px 0px 0px 4px;&quot;&gt;&amp;nbsp;* 流程已取消。在由 org.activiti.engine.impl.RuntimeServiceImpl#deleteProcessInstance(java.lang.String, java.lang.String) 删除流程实例之前分派。在数据库删除之前分派。&lt;/p&gt;&lt;p style=&quot;margin: 0px 0px 0px 4px;&quot;&gt;&amp;nbsp;*/&lt;/p&gt;&lt;p style=&quot;margin: 0px 0px 0px 4px;&quot;&gt;PROCESS_CANCELLED,&lt;/p&gt;&lt;p style=&quot;margin: 0px 0px 0px 4px;&quot;&gt;/**&lt;/p&gt;&lt;p style=&quot;margin: 0px 0px 0px 4px;&quot;&gt;&amp;nbsp;* 创建 HistoricProcessInstance 时分派的事件。这是 ENTITY_CREATED 和 ENTITY_INITIALIZED 事件的专业版本，用例与 PROCESS_STARTED 相同，但包含略有不同的数据（例如开始时间、开始用户 ID 等）。&lt;/p&gt;&lt;p style=&quot;margin: 0px 0px 0px 4px;&quot;&gt;&amp;nbsp;* 请注意，必须启用历史记录（最低级别为 ACTIVITY）才能接收此事件。&lt;/p&gt;&lt;p style=&quot;margin: 0px 0px 0px 4px;&quot;&gt;&amp;nbsp;*/&lt;/p&gt;&lt;p style=&quot;margin: 0px 0px 0px 4px;&quot;&gt;HISTORIC_PROCESS_INSTANCE_CREATED,&lt;/p&gt;&lt;p style=&quot;margin: 0px 0px 0px 4px;&quot;&gt;/**&lt;/p&gt;&lt;p style=&quot;margin: 0px 0px 0px 4px;&quot;&gt;&amp;nbsp;* 当 {@link HistoricProcessInstance} 被标记为结束时分派的事件。这是 {@link ActivitiEventType#ENTITY_UPDATED} 事件的专用版本，&lt;/p&gt;&lt;p style=&quot;margin: 0px 0px 0px 4px;&quot;&gt;&amp;nbsp;* 用途与 {@link ActivitiEventType#PROCESS_COMPLETED} 相同，但包含略有不同的数据（例如结束时间、持续时间等）。&lt;/p&gt;&lt;p style=&quot;margin: 0px 0px 0px 4px;&quot;&gt;&amp;nbsp;*&amp;nbsp;&amp;nbsp;&lt;/p&gt;&lt;p style=&quot;margin: 0px 0px 0px 4px;&quot;&gt;&amp;nbsp;* 注意必须启用历史记录（最低级别为 ACTIVITY）才能接收此事件。&amp;nbsp;&amp;nbsp;&lt;/p&gt;&lt;p style=&quot;margin: 0px 0px 0px 4px;&quot;&gt;&amp;nbsp;*/&lt;/p&gt;&lt;p style=&quot;margin: 0px 0px 0px 4px;&quot;&gt;HISTORIC_PROCESS_INSTANCE_ENDED,&lt;/p&gt;&lt;p style=&quot;margin: 0px 0px 0px 4px;&quot;&gt;&lt;br&gt;&lt;/p&gt;&lt;p style=&quot;margin: 0px 0px 0px 4px;&quot;&gt;/**&lt;/p&gt;&lt;p style=&quot;margin: 0px 0px 0px 4px;&quot;&gt;&amp;nbsp;* 已创建新成员关系。&lt;/p&gt;&lt;p style=&quot;margin: 0px 0px 0px 4px;&quot;&gt;&amp;nbsp;*/&lt;/p&gt;&lt;p style=&quot;margin: 0px 0px 0px 4px;&quot;&gt;MEMBERSHIP_CREATED,&lt;/p&gt;&lt;p style=&quot;margin: 0px 0px 0px 4px;&quot;&gt;&lt;br&gt;&lt;/p&gt;&lt;p style=&quot;margin: 0px 0px 0px 4px;&quot;&gt;/**&lt;/p&gt;&lt;p style=&quot;margin: 0px 0px 0px 4px;&quot;&gt;&amp;nbsp;* 已删除单个成员关系。&lt;/p&gt;&lt;p style=&quot;margin: 0px 0px 0px 4px;&quot;&gt;&amp;nbsp;*/&lt;/p&gt;&lt;p style=&quot;margin: 0px 0px 0px 4px;&quot;&gt;MEMBERSHIP_DELETED,&lt;/p&gt;&lt;p style=&quot;margin: 0px 0px 0px 4px;&quot;&gt;&lt;br&gt;&lt;/p&gt;&lt;p style=&quot;margin: 0px 0px 0px 4px;&quot;&gt;/**&lt;/p&gt;&lt;p style=&quot;margin: 0px 0px 0px 4px;&quot;&gt;&amp;nbsp;* 相关组中的所有成员关系都已删除。由于可能出现性能原因，不会分派单个 {@link #MEMBERSHIP_DELETED} 事件。&lt;/p&gt;&lt;p style=&quot;margin: 0px 0px 0px 4px;&quot;&gt;&amp;nbsp;* 该事件在删除成员关系之前分派，因此它们仍然可以在监听器的分派方法中访问。&lt;/p&gt;&lt;p style=&quot;margin: 0px 0px 0px 4px;&quot;&gt;&amp;nbsp;*/&lt;/p&gt;&lt;p style=&quot;margin: 0px 0px 0px 4px;&quot;&gt;MEMBERSHIPS_DELETED;&lt;/p&gt;&lt;hr style=&quot;font-size: 10px;&quot;&gt;&lt;p style=&quot;margin: 0px 0px 0px 4px; font-size: 10px;&quot;&gt;&lt;br&gt;&lt;/p&gt;" style="verticalAlign=top;align=left;overflow=fill;fontSize=10;fontFamily=Helvetica;html=1;whiteSpace=wrap;" parent="1" vertex="1">
          <mxGeometry x="-520" y="840" width="480" height="2320" as="geometry" />
        </mxCell>
      </root>
    </mxGraphModel>
  </diagram>
  <diagram id="h2iQ7ISkH6K3LxmfOnTO" name="SpringBoot整合Activiti7原理">
    <mxGraphModel dx="1941" dy="756" grid="1" gridSize="10" guides="1" tooltips="1" connect="1" arrows="1" fold="1" page="1" pageScale="1" pageWidth="827" pageHeight="1169" math="0" shadow="0">
      <root>
        <mxCell id="0" />
        <mxCell id="1" parent="0" />
        <mxCell id="rb6MAtKawsLbe7v6Iaic-1" value="&lt;h1&gt;&lt;span style=&quot;font-size: 16px;&quot;&gt;Activiti SpringBoot 工作原理&lt;/span&gt;&lt;/h1&gt;&lt;p style=&quot;&quot;&gt;&lt;font style=&quot;font-size: 12px;&quot;&gt;基于 activiti-spring-boot-starter 7.0.0.GA，以官方示例activiti-api-basic-process-example为例分析工作原理。&lt;br&gt;&lt;span style=&quot;background-color: initial;&quot;&gt;没时间细看，先忽略细节，下面分析内容可能存在错误，后面使用过程中慢慢更正。&lt;br&gt;&lt;/span&gt;&lt;/font&gt;主要关注核心接口相关类实现，https://www.activiti.org/userguide/#chapterApi&lt;span style=&quot;background-color: initial;&quot;&gt;。&lt;/span&gt;&lt;/p&gt;" style="text;html=1;strokeColor=none;fillColor=none;spacing=5;spacingTop=-20;whiteSpace=wrap;overflow=hidden;rounded=0;verticalAlign=top;" parent="1" vertex="1">
          <mxGeometry x="40" y="10" width="600" height="110" as="geometry" />
        </mxCell>
        <mxCell id="rb6MAtKawsLbe7v6Iaic-2" value="" style="edgeStyle=orthogonalEdgeStyle;rounded=1;orthogonalLoop=1;jettySize=auto;html=1;fontSize=10;" parent="1" source="rb6MAtKawsLbe7v6Iaic-4" target="rb6MAtKawsLbe7v6Iaic-10" edge="1">
          <mxGeometry relative="1" as="geometry" />
        </mxCell>
        <mxCell id="rb6MAtKawsLbe7v6Iaic-3" style="edgeStyle=orthogonalEdgeStyle;rounded=1;orthogonalLoop=1;jettySize=auto;html=1;exitX=0.5;exitY=1;exitDx=0;exitDy=0;" parent="1" source="ZgGp3wSE_halreXoiVVE-3" target="rb6MAtKawsLbe7v6Iaic-18" edge="1">
          <mxGeometry relative="1" as="geometry" />
        </mxCell>
        <mxCell id="rb6MAtKawsLbe7v6Iaic-4" value="自动配置&lt;br style=&quot;font-size: 10px;&quot;&gt;spring.factories" style="rounded=1;whiteSpace=wrap;html=1;fontSize=10;" parent="1" vertex="1">
          <mxGeometry x="40" y="160" width="200" height="60" as="geometry" />
        </mxCell>
        <mxCell id="rb6MAtKawsLbe7v6Iaic-5" style="edgeStyle=orthogonalEdgeStyle;rounded=1;orthogonalLoop=1;jettySize=auto;html=1;exitX=1;exitY=0.5;exitDx=0;exitDy=0;entryX=0;entryY=0.5;entryDx=0;entryDy=0;fontSize=10;" parent="1" source="rb6MAtKawsLbe7v6Iaic-10" target="rb6MAtKawsLbe7v6Iaic-12" edge="1">
          <mxGeometry relative="1" as="geometry">
            <Array as="points">
              <mxPoint x="500" y="190" />
              <mxPoint x="500" y="240" />
              <mxPoint x="270" y="240" />
              <mxPoint x="270" y="390" />
            </Array>
          </mxGeometry>
        </mxCell>
        <mxCell id="rb6MAtKawsLbe7v6Iaic-6" value="&lt;font color=&quot;#007fff&quot; style=&quot;font-size: 10px;&quot;&gt;@AutoConfigureAfter&lt;/font&gt;" style="edgeLabel;html=1;align=center;verticalAlign=middle;resizable=0;points=[];fontSize=10;" parent="rb6MAtKawsLbe7v6Iaic-5" vertex="1" connectable="0">
          <mxGeometry x="-0.3" y="1" relative="1" as="geometry">
            <mxPoint x="-23" y="-1" as="offset" />
          </mxGeometry>
        </mxCell>
        <mxCell id="rb6MAtKawsLbe7v6Iaic-7" style="edgeStyle=orthogonalEdgeStyle;rounded=1;orthogonalLoop=1;jettySize=auto;html=1;exitX=1;exitY=0.5;exitDx=0;exitDy=0;entryX=0;entryY=0.5;entryDx=0;entryDy=0;" parent="1" source="rb6MAtKawsLbe7v6Iaic-10" target="rb6MAtKawsLbe7v6Iaic-11" edge="1">
          <mxGeometry relative="1" as="geometry">
            <Array as="points">
              <mxPoint x="500" y="190" />
              <mxPoint x="500" y="240" />
              <mxPoint x="270" y="240" />
              <mxPoint x="270" y="310" />
            </Array>
          </mxGeometry>
        </mxCell>
        <mxCell id="rb6MAtKawsLbe7v6Iaic-8" style="edgeStyle=orthogonalEdgeStyle;rounded=1;orthogonalLoop=1;jettySize=auto;html=1;exitX=1;exitY=0.5;exitDx=0;exitDy=0;entryX=0;entryY=0.5;entryDx=0;entryDy=0;" parent="1" source="rb6MAtKawsLbe7v6Iaic-10" target="rb6MAtKawsLbe7v6Iaic-16" edge="1">
          <mxGeometry relative="1" as="geometry" />
        </mxCell>
        <mxCell id="rb6MAtKawsLbe7v6Iaic-9" style="edgeStyle=orthogonalEdgeStyle;rounded=1;orthogonalLoop=1;jettySize=auto;html=1;exitX=1;exitY=0.5;exitDx=0;exitDy=0;" parent="1" source="rb6MAtKawsLbe7v6Iaic-10" target="rb6MAtKawsLbe7v6Iaic-21" edge="1">
          <mxGeometry relative="1" as="geometry">
            <Array as="points">
              <mxPoint x="520" y="190" />
              <mxPoint x="520" y="260" />
            </Array>
          </mxGeometry>
        </mxCell>
        <mxCell id="rb6MAtKawsLbe7v6Iaic-10" value="ProcessEngineAutoConfiguration" style="rounded=1;whiteSpace=wrap;html=1;fontSize=10;fillColor=#dae8fc;strokeColor=#6c8ebf;" parent="1" vertex="1">
          <mxGeometry x="280" y="160" width="200" height="60" as="geometry" />
        </mxCell>
        <mxCell id="rb6MAtKawsLbe7v6Iaic-11" value="DataSourceAutoConfiguration&lt;br&gt;&lt;font color=&quot;#007fff&quot;&gt;数据源配置&lt;/font&gt;" style="rounded=1;whiteSpace=wrap;html=1;fontSize=10;fillColor=#dae8fc;strokeColor=#6c8ebf;" parent="1" vertex="1">
          <mxGeometry x="280" y="280" width="200" height="60" as="geometry" />
        </mxCell>
        <mxCell id="rb6MAtKawsLbe7v6Iaic-12" value="TaskExecutionAutoConfiguration&lt;br&gt;&lt;font color=&quot;#007fff&quot;&gt;线程池配置&lt;/font&gt;" style="rounded=1;whiteSpace=wrap;html=1;fontSize=10;fillColor=#dae8fc;strokeColor=#6c8ebf;" parent="1" vertex="1">
          <mxGeometry x="280" y="360" width="200" height="60" as="geometry" />
        </mxCell>
        <mxCell id="rb6MAtKawsLbe7v6Iaic-13" value="&lt;font color=&quot;#007fff&quot;&gt;//全局配置&lt;/font&gt;&lt;br&gt;&lt;b&gt;SpringProcessEngineConfiguration&lt;/b&gt; springProcessEngineConfiguration&lt;br&gt;&lt;font color=&quot;#007fff&quot;&gt;//工作流定义资源Finder&lt;br&gt;&lt;/font&gt;&lt;b&gt;ProcessDefinitionResourceFinder&lt;/b&gt; processDefinitionResourceFinder&amp;nbsp;&lt;br&gt;&lt;b&gt;ProcessDeployedEventProducer&lt;/b&gt; processDeployedEventProducer&lt;br&gt;&lt;b&gt;SpringAsyncExecutor&lt;/b&gt; springAsyncExecutor&lt;br&gt;&lt;b&gt;SpringRejectedJobsHandler&lt;/b&gt; springRejectedJobsHandler&lt;br&gt;&lt;b&gt;ProcessEngineFactoryBean&lt;/b&gt; processEngine&lt;br&gt;&lt;b&gt;RuntimeService&lt;/b&gt; runtimeServiceBean&lt;br&gt;&lt;b&gt;RepositoryService&lt;/b&gt; repositoryServiceBean&lt;br&gt;&lt;b&gt;TaskService&lt;/b&gt; taskServiceBean&lt;br&gt;&lt;b&gt;HistoryService&lt;/b&gt; historyServiceBean&lt;br&gt;&lt;b&gt;ManagementService&lt;/b&gt; managementServiceBeanBean&lt;br&gt;&lt;b&gt;TaskExecutor&lt;/b&gt; taskExecutor&lt;br&gt;&lt;b&gt;ntegrationContextManager&lt;/b&gt; integrationContextManagerBean&lt;br&gt;&lt;b&gt;IntegrationContextService&lt;/b&gt; integrationContextServiceBean" style="rounded=1;whiteSpace=wrap;html=1;fontSize=10;align=left;arcSize=4;verticalAlign=top;" parent="1" vertex="1">
          <mxGeometry x="800" y="160" width="440" height="200" as="geometry" />
        </mxCell>
        <mxCell id="rb6MAtKawsLbe7v6Iaic-14" value="工作原理概述：&lt;br&gt;" style="text;html=1;strokeColor=none;fillColor=none;align=left;verticalAlign=top;whiteSpace=wrap;rounded=0;" parent="1" vertex="1">
          <mxGeometry x="680" y="10" width="320" height="130" as="geometry" />
        </mxCell>
        <mxCell id="rb6MAtKawsLbe7v6Iaic-15" value="&lt;p style=&quot;margin: 4px 0px 0px; text-align: center; font-size: 10px;&quot;&gt;&lt;b style=&quot;font-size: 10px;&quot;&gt;SpringProcessEngineConfiguration&lt;/b&gt;&lt;br style=&quot;font-size: 10px;&quot;&gt;&lt;/p&gt;&lt;hr style=&quot;font-size: 10px;&quot;&gt;&lt;p style=&quot;margin: 0px 0px 0px 4px; font-size: 10px;&quot;&gt;protected PlatformTransactionManager &lt;b style=&quot;font-size: 10px;&quot;&gt;transactionManager&lt;/b&gt;;&lt;/p&gt;&lt;p style=&quot;margin: 0px 0px 0px 4px; font-size: 10px;&quot;&gt;protected String deploymentName = &quot;SpringAutoDeployment&quot;;&lt;/p&gt;&lt;p style=&quot;margin: 0px 0px 0px 4px; font-size: 10px;&quot;&gt;protected Resource[] &lt;b style=&quot;font-size: 10px;&quot;&gt;deploymentResources&lt;/b&gt; = new Resource[0];&lt;/p&gt;&lt;p style=&quot;margin: 0px 0px 0px 4px; font-size: 10px;&quot;&gt;protected String deploymentMode = &quot;default&quot;;&lt;/p&gt;&lt;p style=&quot;margin: 0px 0px 0px 4px; font-size: 10px;&quot;&gt;protected ApplicationContext applicationContext;&lt;/p&gt;&lt;p style=&quot;margin: 0px 0px 0px 4px; font-size: 10px;&quot;&gt;protected Integer transactionSynchronizationAdapterOrder = null;&lt;/p&gt;&lt;p style=&quot;margin: 0px 0px 0px 4px; font-size: 10px;&quot;&gt;private Collection&amp;lt;AutoDeploymentStrategy&amp;gt; &lt;b style=&quot;font-size: 10px;&quot;&gt;deploymentStrategies&lt;/b&gt; = new ArrayList();&lt;/p&gt;&lt;div style=&quot;font-size: 10px;&quot;&gt;&lt;br style=&quot;font-size: 10px;&quot;&gt;&lt;/div&gt;&lt;hr style=&quot;font-size: 10px;&quot;&gt;&lt;p style=&quot;margin: 0px 0px 0px 4px; font-size: 10px;&quot;&gt;&lt;br style=&quot;font-size: 10px;&quot;&gt;&lt;/p&gt;" style="verticalAlign=top;align=left;overflow=fill;fontSize=10;fontFamily=Helvetica;html=1;whiteSpace=wrap;" parent="1" vertex="1">
          <mxGeometry x="-520" y="160" width="480" height="200" as="geometry" />
        </mxCell>
        <mxCell id="rb6MAtKawsLbe7v6Iaic-16" value="@EnableConfigurationProperties({&lt;br&gt;&lt;b&gt;ActivitiProperties&lt;/b&gt;.class})" style="rounded=1;whiteSpace=wrap;html=1;fontSize=10;" parent="1" vertex="1">
          <mxGeometry x="560" y="360" width="200" height="60" as="geometry" />
        </mxCell>
        <mxCell id="rb6MAtKawsLbe7v6Iaic-17" value="" style="edgeStyle=orthogonalEdgeStyle;rounded=1;orthogonalLoop=1;jettySize=auto;html=1;" parent="1" source="rb6MAtKawsLbe7v6Iaic-18" target="rb6MAtKawsLbe7v6Iaic-19" edge="1">
          <mxGeometry relative="1" as="geometry" />
        </mxCell>
        <mxCell id="rb6MAtKawsLbe7v6Iaic-18" value="工作流实例创建与启动" style="rounded=1;whiteSpace=wrap;html=1;fontSize=10;" parent="1" vertex="1">
          <mxGeometry x="40" y="760" width="200" height="60" as="geometry" />
        </mxCell>
        <mxCell id="ZgGp3wSE_halreXoiVVE-6" value="" style="edgeStyle=orthogonalEdgeStyle;rounded=0;orthogonalLoop=1;jettySize=auto;html=1;" edge="1" parent="1" source="rb6MAtKawsLbe7v6Iaic-19" target="ZgGp3wSE_halreXoiVVE-5">
          <mxGeometry relative="1" as="geometry" />
        </mxCell>
        <mxCell id="rb6MAtKawsLbe7v6Iaic-19" value="工作流实例任务处理" style="rounded=1;whiteSpace=wrap;html=1;fontSize=10;" parent="1" vertex="1">
          <mxGeometry x="40" y="860" width="200" height="60" as="geometry" />
        </mxCell>
        <mxCell id="rb6MAtKawsLbe7v6Iaic-20" style="edgeStyle=orthogonalEdgeStyle;rounded=1;orthogonalLoop=1;jettySize=auto;html=1;exitX=1;exitY=0.5;exitDx=0;exitDy=0;" parent="1" source="rb6MAtKawsLbe7v6Iaic-21" target="rb6MAtKawsLbe7v6Iaic-13" edge="1">
          <mxGeometry relative="1" as="geometry" />
        </mxCell>
        <mxCell id="rb6MAtKawsLbe7v6Iaic-21" value="Bean实例&lt;br&gt;&lt;font color=&quot;#007fff&quot;&gt;可以看到自动配置阶段将Activiti的组件都创建好了&lt;/font&gt;" style="rounded=1;whiteSpace=wrap;html=1;fontSize=10;" parent="1" vertex="1">
          <mxGeometry x="560" y="230" width="200" height="60" as="geometry" />
        </mxCell>
        <mxCell id="rb6MAtKawsLbe7v6Iaic-22" value="" style="edgeStyle=orthogonalEdgeStyle;rounded=1;orthogonalLoop=1;jettySize=auto;html=1;exitX=0.5;exitY=1;exitDx=0;exitDy=0;" parent="1" source="rb6MAtKawsLbe7v6Iaic-4" target="rb6MAtKawsLbe7v6Iaic-24" edge="1">
          <mxGeometry relative="1" as="geometry">
            <mxPoint x="140" y="220" as="sourcePoint" />
            <mxPoint x="140" y="560" as="targetPoint" />
          </mxGeometry>
        </mxCell>
        <mxCell id="rb6MAtKawsLbe7v6Iaic-23" value="" style="edgeStyle=orthogonalEdgeStyle;rounded=0;orthogonalLoop=1;jettySize=auto;html=1;" parent="1" source="rb6MAtKawsLbe7v6Iaic-24" target="rb6MAtKawsLbe7v6Iaic-25" edge="1">
          <mxGeometry relative="1" as="geometry" />
        </mxCell>
        <mxCell id="rb6MAtKawsLbe7v6Iaic-24" value="依赖配置" style="rounded=1;whiteSpace=wrap;html=1;fontSize=10;" parent="1" vertex="1">
          <mxGeometry x="40" y="440" width="200" height="60" as="geometry" />
        </mxCell>
        <mxCell id="rb6MAtKawsLbe7v6Iaic-25" value="CommonRuntimeAutoConfiguration" style="rounded=1;whiteSpace=wrap;html=1;fontSize=10;" parent="1" vertex="1">
          <mxGeometry x="280" y="440" width="200" height="60" as="geometry" />
        </mxCell>
        <mxCell id="ZgGp3wSE_halreXoiVVE-2" value="" style="edgeStyle=orthogonalEdgeStyle;rounded=1;orthogonalLoop=1;jettySize=auto;html=1;exitX=0.5;exitY=1;exitDx=0;exitDy=0;" edge="1" parent="1" source="rb6MAtKawsLbe7v6Iaic-24" target="ZgGp3wSE_halreXoiVVE-1">
          <mxGeometry relative="1" as="geometry">
            <mxPoint x="140" y="500" as="sourcePoint" />
            <mxPoint x="140" y="760" as="targetPoint" />
          </mxGeometry>
        </mxCell>
        <mxCell id="ZgGp3wSE_halreXoiVVE-1" value="模型创建与保存" style="rounded=1;whiteSpace=wrap;html=1;fontSize=10;" vertex="1" parent="1">
          <mxGeometry x="40" y="540" width="200" height="60" as="geometry" />
        </mxCell>
        <mxCell id="ZgGp3wSE_halreXoiVVE-4" value="" style="edgeStyle=orthogonalEdgeStyle;rounded=1;orthogonalLoop=1;jettySize=auto;html=1;exitX=0.5;exitY=1;exitDx=0;exitDy=0;" edge="1" parent="1" source="ZgGp3wSE_halreXoiVVE-1" target="ZgGp3wSE_halreXoiVVE-3">
          <mxGeometry relative="1" as="geometry">
            <mxPoint x="140" y="600" as="sourcePoint" />
            <mxPoint x="140" y="760" as="targetPoint" />
          </mxGeometry>
        </mxCell>
        <mxCell id="ZgGp3wSE_halreXoiVVE-3" value="模型部署" style="rounded=1;whiteSpace=wrap;html=1;fontSize=10;" vertex="1" parent="1">
          <mxGeometry x="40" y="640" width="200" height="60" as="geometry" />
        </mxCell>
        <mxCell id="ZgGp3wSE_halreXoiVVE-5" value="工作流实例结束" style="rounded=1;whiteSpace=wrap;html=1;fontSize=10;" vertex="1" parent="1">
          <mxGeometry x="40" y="960" width="200" height="60" as="geometry" />
        </mxCell>
      </root>
    </mxGraphModel>
  </diagram>
</mxfile>
